<svg xmlns="http://www.w3.org/2000/svg" viewBox="0 0 16 12" width="96" height="72" shape-rendering="crispEdges" role="img" aria-label="a pixel-art blue slime"><rect x="6" y="1" width="4" height="1" fill="#1e3a8a"/><rect x="4" y="2" width="8" height="1" fill="#1e3a8a"/><rect x="3" y="3" width="10" height="1" fill="#1e3a8a"/><rect x="2" y="4" width="12" height="1" fill="#1e3a8a"/><rect x="1" y="5" width="14" height="1" fill="#1e3a8a"/><rect x="1" y="6" width="14" height="1" fill="#1e3a8a"/><rect x="0" y="7" width="16" height="1" fill="#1e3a8a"/><rect x="0" y="8" width="16" height="1" fill="#1e3a8a"/><rect x="0" y="9" width="16" height="1" fill="#1e3a8a"/><rect x="0" y="10" width="16" height="1" fill="#1e3a8a"/><rect x="6" y="2" width="4" height="1" fill="#4f9cf0"/><rect x="5" y="3" width="6" height="1" fill="#4f9cf0"/><rect x="4" y="4" width="8" height="1" fill="#4f9cf0"/><rect x="3" y="5" width="10" height="1" fill="#4f9cf0"/><rect x="2" y="6" width="12" height="1" fill="#4f9cf0"/><rect x="2" y="7" width="12" height="1" fill="#4f9cf0"/><rect x="1" y="8" width="14" height="1" fill="#4f9cf0"/><rect x="1" y="9" width="14" height="1" fill="#4f9cf0"/><rect x="5" y="3" width="2" height="1" fill="#a8cff8"/><rect x="4" y="4" width="1" height="1" fill="#a8cff8"/><rect x="4" y="5" width="1" height="1" fill="#a8cff8"/><rect x="9" y="4" width="1" height="1" fill="#101828"/><rect x="9" y="5" width="1" height="1" fill="#101828"/><rect x="12" y="4" width="1" height="1" fill="#101828"/><rect x="12" y="5" width="1" height="1" fill="#101828"/></svg>
